<svg height="512pt" fill="#9D0E00" viewBox="0 -76 512 512" width="512pt" xmlns="http://www.w3.org/2000/svg"><path d="m135 330c0 16.570312-13.429688 30-30 30s-30-13.429688-30-30 13.429688-30 30-30 30 13.429688 30 30zm0 0"/><path d="m438 330c0 16.570312-13.429688 30-30 30s-30-13.429688-30-30 13.429688-30 30-30 30 13.429688 30 30zm0 0"/><path d="m333 90h60v60h-60zm0 0"/><path d="m0 90h90v60h-90zm0 0"/><path d="m210 180h93v150h-93zm0 0"/><path d="m210 90h93v60h-93zm0 0"/><path d="m120 90h60v60h-60zm0 0"/><path d="m512 128.289062-19.726562-38.289062h-69.273438v60h89zm0 0"/><path d="m45 330c0-33.089844 26.910156-60 60-60s60 26.910156 60 60h15v-150h-180v105c0 24.8125 20.1875 45 45 45zm0 0"/><path d="m498 240h14v-60h-179v150h15c0-33.089844 26.910156-60 60-60s60 26.910156 60 60c24.8125 0 44-20.1875 44-45v-15h-14c-8.289062 0-15-6.710938-15-15s6.710938-15 15-15zm0 0"/><path d="m459.710938 24.871094c-7.679688-15.335938-23.101563-24.871094-40.257813-24.871094h-374.453125c-24.8125 0-45 20.1875-45 45v15h477.273438zm0 0"/></svg>