<svg height="512pt" fill="#4F0B05" viewBox="0 0 512 512" width="512pt" xmlns="http://www.w3.org/2000/svg"><path d="m45 421h340.40625c-11.828125-13.117188-20.023438-29.574219-22.566406-47.863281-.988282-7.105469-7.503906-12.136719-14.679688-12.136719h-333.160156c-8.285156 0-15 6.714844-15 15 0 24.851562 20.148438 45 45 45zm0 0"/><path d="m452.851562 451h-391.851562v46c0 8.285156 6.714844 15 15 15h421c8.285156 0 15-6.714844 15-15v-69.40625c-15.777344 14.222656-36.402344 23.128906-59.222656 23.328125zm0 0"/><path d="m497 30h-45v-15c0-8.289062-6.710938-15-15-15s-15 6.710938-15 15v15h-30v-15c0-8.289062-6.710938-15-15-15s-15 6.710938-15 15v15h-151v-15c0-8.289062-6.710938-15-15-15s-15 6.710938-15 15v15h-30v-15c0-8.289062-6.710938-15-15-15s-15 6.710938-15 15v15h-45c-8.285156 0-15 6.714844-15 15v46h451v-46c0-8.285156-6.714844-15-15-15zm0 0"/><path d="m61 331h287.15625c19.339844 0 37.6875 12.601562 43.804688 30h.039062c0 33.136719 26.863281 60 60 60s60-26.863281 60-60v-240h-451zm316-180h30c8.289062 0 15 6.710938 15 15s-6.710938 15-15 15h-30c-8.289062 0-15-6.710938-15-15s6.710938-15 15-15zm0 60h30c8.289062 0 15 6.710938 15 15s-6.710938 15-15 15h-30c-8.289062 0-15-6.710938-15-15s6.710938-15 15-15zm0 60h30c8.289062 0 15 6.710938 15 15s-6.710938 15-15 15h-30c-8.289062 0-15-6.710938-15-15s6.710938-15 15-15zm-106-120h31c8.289062 0 15 6.710938 15 15s-6.710938 15-15 15h-31c-8.289062 0-15-6.710938-15-15s6.710938-15 15-15zm0 60h31c8.289062 0 15 6.710938 15 15s-6.710938 15-15 15h-31c-8.289062 0-15-6.710938-15-15s6.710938-15 15-15zm0 60h31c8.289062 0 15 6.710938 15 15s-6.710938 15-15 15h-31c-8.289062 0-15-6.710938-15-15s6.710938-15 15-15zm-105-120h30c8.289062 0 15 6.710938 15 15s-6.710938 15-15 15h-30c-8.289062 0-15-6.710938-15-15s6.710938-15 15-15zm0 60h30c8.289062 0 15 6.710938 15 15s-6.710938 15-15 15h-30c-8.289062 0-15-6.710938-15-15s6.710938-15 15-15zm0 60h30c8.289062 0 15 6.710938 15 15s-6.710938 15-15 15h-30c-8.289062 0-15-6.710938-15-15s6.710938-15 15-15zm0 0"/></svg>