<svg height="511pt" fill="#9D0E00" viewBox="0 0 511.99999 511" width="511pt" xmlns="http://www.w3.org/2000/svg"><path d="m.00390625 91.5c0 49.628906 41.37109375 89.996094 90.99999975 89.996094 29.546875 0 57.214844-14.515625 74.046875-38.816406 3.617188-5.226563 3.542969-12.144532-.160156-17.300782-3.722656-5.15625-10.269531-7.46875-16.347656-5.636718-4.042969 1.15625-8.261719 1.757812-12.539063 1.757812-24.816406 0-45-20.1875-45-45 0-18.617188 11.703125-36.539062 29.105469-43.113281 5.933594-2.242188 9.8125-7.984375 9.695313-14.328125-.117188-6.339844-4.21875-11.921875-10.238282-13.929688-9.167968-3.074218-18.792968-4.628906-28.5625-4.628906-49.628906 0-90.99999975 41.371094-90.99999975 91zm0 0"/><path d="m390.089844 9.5c-4.304688-11.863281-23.875-11.863281-28.183594 0l-72.773438 201.996094h56.867188c5.253906 0 10.226562 1.191406 15 2.882812v-47.878906c0-8.292969 6.707031-15 15-15 8.289062 0 15 6.707031 15 15v53.785156l4.394531-4.394531c5.859375-5.859375 15.351563-5.859375 21.210938 0s5.859375 15.351563 0 21.210937l-18.257813 18.257813 66.339844 106.136719h32.3125c4.890625 0 9.476562-2.390625 12.289062-6.402344 2.796876-4 3.484376-9.125 1.800782-13.726562zm0 0"/><path d="m271.910156 9.5-72.773437 201.996094h58.078125l57.824218-160.023438-14.945312-41.972656c-4.308594-11.863281-23.878906-11.863281-28.183594 0zm0 0"/><path d="m497 512.492188c5.449219 0 10.472656-2.957032 13.125-7.730469 2.636719-4.761719 2.488281-10.59375-.410156-15.222657l-151-240.996093c-2.738282-4.378907-7.542969-7.046875-12.714844-7.046875h-167.179688l117.433594 235.871094c5.496094 10.964843 5.957032 23.714843 1.929688 35.125zm0 0"/><path d="m2.246094 505.375c2.738281 4.425781 7.558594 7.117188 12.757812 7.117188h106v-259.539063l-119.417968 237.832031c-2.328126 4.644532-2.078126 10.164063.660156 14.589844zm0 0"/><path d="m268.761719 505.375c2.738281-4.425781 2.988281-9.945312.65625-14.589844l-118.414063-237.832031v259.539063h104.996094c5.203125 0 10.019531-2.691407 12.761719-7.117188zm0 0"/></svg>