<svg height="512pt" fill="#9D0E00" viewBox="-61 0 512 512" width="512pt" xmlns="http://www.w3.org/2000/svg"><path d="m314 205.414062c43.734375-12.679687 76-52.652343 76-100.414062 0-57.890625-47.109375-105-105-105-41.726562 0-77.546875 24.65625-94.46875 60h94.46875c24.8125 0 45 20.1875 45 45v30c0 24.730469-5.621094 48.707031-16 70.414062zm0 0"/><path d="m165 391c-5.136719 0-10.058594-.800781-15-1.515625v62.515625h-15c-24.851562 0-45 20.148438-45 45 0 8.285156 6.714844 15 15 15h120c8.285156 0 15-6.714844 15-15 0-24.851562-20.148438-45-45-45h-15v-62.515625c-4.941406.714844-9.863281 1.515625-15 1.515625zm0 0"/><path d="m240 246.648438c24.261719-16.296876 42.230469-39.878907 51.910156-66.648438h-253.820312c9.679687 26.769531 27.648437 50.351562 51.910156 66.648438v38.351562c0 41.351562 33.648438 76 75 76s75-34.648438 75-76zm-75 53.351562c-8.285156 0-15-6.714844-15-15s6.714844-15 15-15 15 6.714844 15 15-6.714844 15-15 15zm15-60c-8.285156 0-15-6.714844-15-15s6.714844-15 15-15 15 6.714844 15 15-6.714844 15-15 15zm0 0"/><path d="m300 135v-30c0-8.289062-6.710938-15-15-15h-139.195312l-26.582032-79.746094c-2.035156-6.121094-7.761718-10.253906-14.222656-10.253906h-90c-8.289062 0-15 6.710938-15 15s6.710938 15 15 15h79.1875l20.003906 60h-69.191406c-8.289062 0-15 6.710938-15 15v30c0 5.046875.382812 10.042969.949219 15h268.101562c.566407-4.957031.949219-9.953125.949219-15zm0 0"/></svg>