<?xml version="1.0" encoding="utf-8"?>
<!-- Generator: Adobe Illustrator 19.2.0, SVG Export Plug-In . SVG Version: 6.00 Build 0)  -->
<svg version="1.1" id="Vrstva_1" xmlns="http://www.w3.org/2000/svg" xmlns:xlink="http://www.w3.org/1999/xlink" x="0px" y="0px"
	 viewBox="0 0 412.8 264.3" style="enable-background:new 0 0 412.8 264.3;" xml:space="preserve">
<style type="text/css">
	.st0{fill:#E65117;}
	.st1{fill:#EDF4F4;}
	.st2{fill:#F5A848;}
	.st3{fill:#7F2110;}
	.st4{fill:#510905;}
</style>
<path class="st0" d="M204.4,10.4c37.9,0,76.5,3.4,117.9,10.3c0,69.1-0.5,115.4-14.9,148.9c-7.3,17.1-18.3,31.2-34.5,44.4
	c-15.7,12.8-36.9,25.2-66.5,39c-29.6-13.8-50.8-26.2-66.5-39c-16.2-13.2-27.2-27.3-34.5-44.4C91,136.1,90.5,89.8,90.5,20.7
	C129.3,13.8,166.7,10.4,204.4,10.4 M204.4,0c-39.1,0-77.7,3.5-117.8,10.6l-6.4,1.1l0,6.5c0,73.4,0.8,120.2,15.8,155.3
	c8,18.6,19.9,34,37.5,48.3c16.6,13.5,38.7,26.5,69.6,40.9l3.3,1.5l3.3-1.5c30.9-14.4,53-27.4,69.6-40.9
	c17.6-14.3,29.5-29.7,37.5-48.3c15-35.1,15.8-81.8,15.8-155.2l0-6.6l-6.5-1.1C283.5,3.5,243.6,0,204.4,0L204.4,0z"/>
<g>
	<path class="st1" d="M96.7,54.2l5.6-17.1l6.3,19.3l4.7-14.3l5.6,17.1l5.2-15.9l5.9,18l5.2-15.9l4.3,13l3.6-10.8l2.5,7.6l8-4.2
		l8.3-3.4l8-6.2h8.3l8-7.6l25-16.8l9,6.5l9.5,4.5l5.1,4.3l10.5,4l8.2,5l8.7,0.8l10.5,7.7l10.2,1.8l7.9,5.4l2.8-8.5l4.5,13.6
		l5.5-16.8l4.5,13.6l5.5-16.6l4.3,13l4.5-13.8c0-6.7,0-13.7,0-20.9c-41.3-6.9-79.9-10.3-117.9-10.3c-37.8,0-75.1,3.4-114,10.2
		c0,7.5,0,14.8,0,21.8c0-2.3,0-4.6,0-7L96.7,54.2z"/>
	<polygon class="st0" points="149,65.2 153.6,51 145.7,55.2 	"/>
	<polygon class="st0" points="290.7,57.1 282.8,51.7 287.7,66.4 	"/>
	<path class="st0" d="M226.2,79l3.7-4.2l2.6,3l3.6-6.4l3.1,5.6l3.7-11.1l3.4,10.4l5-15.3l3.9,11.8l5.3-16.1l5.2,15.9l6-18.3
		l5.1,15.4l5.9-18l-10.2-1.8l-10.5-7.7l-8.7-0.8l-8.2-5l-10.5-4l-5.1-4.3l-9.5-4.5l-9-6.5l-25,16.8l-8,7.6h-8.3l-8,6.2l-8.3,3.4
		l5.4,16.4l4.3-13.2l4.3,13l3.4-10.3l5.8,17.7l4.8-14.5l5.6,17l4.6-14l4.9,14.7l2.9-8.7l4,12.1l2.6-8l2.7,8.2l4.5-0.6l10.1-3.7
		L226.2,79z M208.8,31.5l-6.8,9.9l1.4-9.2l-12.6,8.8l-9.6,8.2l-9.4-0.8l-13.3,6.5l12.6-9.8h8.9l7.6-7.5l22.6-15.3L208.8,31.5z"/>
	<polygon class="st2" points="180.1,45.1 171.1,45.1 158.6,54.9 171.9,48.4 181.2,49.2 190.8,41.1 203.5,32.2 202,41.5 208.8,31.5 
		210.3,22.3 187.7,37.7 	"/>
	<polygon class="st3" points="210.7,87 213.3,80.8 208.8,81.4 	"/>
	<path class="st3" d="M313.5,42.4L308,58.9l-4.5-13.6L298,62.2l-4.5-13.6l-2.8,8.5l-3.1,9.3l-4.8-14.7l-5.9,18l-5.1-15.4l-6,18.3
		l-5.2-15.9l-5.3,16.1l-3.9-11.8l-5,15.3L243,65.8l-3.7,11.1l-3.1-5.6l-3.6,6.4l-2.6-3l-3.7,4.2l-2.8-1.9l-10.1,3.7l3,7.2h105.1
		c0.3-7,0.5-14.4,0.6-22.1c0,0,0,0,0,0c0.1-5.6,0.2-11.5,0.2-17.5c0-0.3,0-0.6,0-0.9c0-1.9,0-3.8,0-5.7c0,0,0,0,0,0l0,0l-4.5,13.8
		L313.5,42.4z"/>
	<g>
		<rect x="8.4" y="96.3" class="st1" width="396" height="50"/>
		<path class="st4" d="M321.4,87.9L321.4,87.9L321.4,87.9H216.3l-3-7.2l-2.7,6.3l-1.9-5.7l-2.7-8.2l-2.6,8l-4-12.1l-2.9,8.7
			l-4.9-14.7l-4.6,14l-5.6-17l-4.8,14.5L171,56.9l-3.4,10.3l-4.3-13L159,67.4L153.6,51L149,65.2l-3.3-10l-2.5-7.6l-3.6,10.8l-4.3-13
			l-5.2,15.9l-5.9-18l-5.2,15.9l-5.6-17.1l-4.7,14.3l-6.3-19.3l-5.6,17.1l-6.2-18.7c0,2.4,0,4.7,0,7c0,0.1,0,0.2,0,0.3
			c0.1,16.4,0.3,31.4,0.8,45.2h0h0H0v66.8h100.1c1.5,5.3,3.3,10.2,5.3,15c7.3,17.1,18.3,31.2,34.5,44.4c15.7,12.8,36.9,25.2,66.5,39
			c29.6-13.8,50.8-26.2,66.5-39c16.2-13.2,27.2-27.3,34.5-44.4c2-4.7,3.8-9.7,5.3-15h100.1V87.9H321.4z M404.4,146.3h-89.5h-217H8.4
			v-50h83.4H321h17.3l-0.7,0.9l-4.1,4.9h7.5l7.1-5.8h56.2V146.3z"/>
	</g>
	<g>
		<path class="st1" d="M145.4,203.9c-3.5-3.4-5.3-8.2-5.3-14.4v-22.8h14V189c0,3,0.5,5.2,1.6,6.6c1.1,1.4,2.6,2.1,4.7,2.1
			c2,0,3.6-0.7,4.7-2.1c1.1-1.4,1.6-3.6,1.6-6.6v-22.3h13.7v22.8c0,6.2-1.8,11-5.3,14.4c-3.5,3.4-8.5,5.1-14.8,5.1
			C153.9,209,149,207.3,145.4,203.9z"/>
		<path class="st1" d="M199.5,177.5h-12.1v-10.8h38.2v10.8h-12.1v30.6h-14V177.5z"/>
		<path class="st1" d="M270.7,190.4c1.3,1.7,2,3.8,2,6.3c0,3.6-1.5,6.4-4.5,8.4c-3,2-7.3,3-13,3h-23.3v-41.4H254c5.5,0,9.7,1,12.5,3
			c2.8,2,4.2,4.6,4.2,7.9c0,1.9-0.5,3.7-1.4,5.2c-1,1.5-2.4,2.8-4.3,3.7C267.5,187.3,269.3,188.7,270.7,190.4z M245.6,176.4v6.1h6.5
			c3,0,4.6-1,4.6-3.1c0-2-1.5-3.1-4.6-3.1H245.6z M258.6,195.1c0-2.2-1.5-3.3-4.6-3.3h-8.4v6.5h8.4
			C257.1,198.3,258.6,197.2,258.6,195.1z"/>
	</g>
	<path class="st4" d="M41.6,119.8c-1.8-0.7-4.1-1.2-6.8-1.7c-2.1-0.4-3.6-0.8-4.5-1.1c-0.9-0.4-1.4-0.9-1.4-1.6
		c0-1.5,1.5-2.2,4.6-2.2c3.1,0,6.3,0.9,9.8,2.6l3.6-8.6c-1.8-1-3.8-1.8-6.1-2.3c-2.3-0.5-4.7-0.8-7.1-0.8c-3.5,0-6.5,0.5-9,1.6
		c-2.5,1-4.3,2.5-5.5,4.3c-1.2,1.8-1.9,3.8-1.9,6c0,2.5,0.7,4.6,2,6c1.3,1.5,2.9,2.6,4.7,3.2c1.8,0.7,4.1,1.3,6.8,1.8
		c2.1,0.4,3.6,0.8,4.5,1.2c0.9,0.4,1.4,0.9,1.4,1.7c0,0.6-0.4,1.1-1.1,1.4c-0.7,0.3-1.9,0.5-3.5,0.5c-1.9,0-3.9-0.3-6-0.9
		c-2.1-0.6-3.9-1.4-5.6-2.3l-3.8,8.6c1.8,1.1,4,2,6.8,2.6s5.6,1,8.5,1c3.5,0,6.5-0.5,9-1.6c2.5-1.1,4.3-2.5,5.5-4.3
		c1.2-1.8,1.9-3.8,1.9-6c0-2.5-0.7-4.5-2-6C45,121.5,43.4,120.5,41.6,119.8z"/>
	<polygon class="st4" points="63.8,126.5 78.6,126.5 78.6,118 63.8,118 63.8,113.9 80.7,113.9 80.7,104.9 52.1,104.9 52.1,140.1 
		81.3,140.1 81.3,131.1 63.8,131.1 	"/>
	<polygon class="st4" points="116.3,112.2 116.3,104.9 85.3,104.9 85.3,114.1 100.9,114.1 84.8,132.8 84.8,140.1 117.1,140.1 
		117.1,130.9 100.2,130.9 	"/>
	<polygon class="st4" points="144.2,120.9 130.8,104.9 121.1,104.9 121.1,140.1 132.6,140.1 132.6,124.1 146,140.1 155.7,140.1 
		155.7,104.9 144.2,104.9 	"/>
	<path class="st4" d="M172.9,104.9l-15.3,35.1h12l2.4-6.1h13.3l2.4,6.1h12.2l-15.3-35.1H172.9z M175.2,125.4l3.4-8.8l3.4,8.8H175.2z
		"/>
	<polygon class="st4" points="234,104.9 222.8,123.7 211.4,104.9 201.6,104.9 201.6,140.1 212.4,140.1 212.4,124.6 220.1,136.9 
		225.3,136.9 232.9,124.1 233,140.1 243.8,140.1 243.7,104.9 	"/>
	<path class="st4" d="M277.8,106.5c-3-1.6-6.4-2.4-10.2-2.4c-3.8,0-7.2,0.8-10.2,2.4c-3,1.6-5.4,3.8-7.1,6.5
		c-1.7,2.8-2.6,5.9-2.6,9.5s0.9,6.7,2.6,9.5c1.7,2.8,4.1,5,7.1,6.5c3,1.6,6.4,2.4,10.2,2.4c3.8,0,7.2-0.8,10.2-2.4
		c3-1.6,5.4-3.8,7.1-6.5c1.7-2.8,2.6-5.9,2.6-9.5s-0.9-6.7-2.6-9.5S280.8,108.1,277.8,106.5z M274.4,127.1c-0.7,1.3-1.6,2.3-2.8,3.1
		c-1.2,0.7-2.5,1.1-4,1.1c-1.5,0-2.8-0.4-4-1.1c-1.2-0.7-2.1-1.7-2.8-3.1c-0.7-1.3-1.1-2.9-1.1-4.6c0-1.8,0.4-3.3,1.1-4.6
		c0.7-1.3,1.6-2.3,2.8-3.1c1.2-0.7,2.5-1.1,4-1.1c1.5,0,2.8,0.4,4,1.1c1.2,0.7,2.1,1.7,2.8,3.1c0.7,1.3,1.1,2.9,1.1,4.6
		C275.4,124.3,275.1,125.8,274.4,127.1z"/>
	<polygon class="st4" points="315.3,104.9 306.8,125.5 298.4,104.9 285.6,104.9 300.5,140.1 312.1,140.1 327,104.9 	"/>
	<path class="st4" d="M333,104.9l-15.3,35.1h12l2.4-6.1h13.3l2.4,6.1H360l-15.3-35.1H333z M335.3,125.4l3.4-8.8l3.4,8.8H335.3z"/>
	<polygon class="st4" points="373.5,131.4 376.1,128.4 384.9,140.1 398.6,140.1 383.8,120.4 397.9,104.9 385,104.9 373.5,117.7 
		373.5,104.9 361.8,104.9 361.8,140.1 373.5,140.1 	"/>
</g>
</svg>
