<svg height="511pt" fill="#9D0E00" viewBox="1 0 511.9995 511" width="511pt" xmlns="http://www.w3.org/2000/svg"><path d="m317 .5c-107.519531 0-195 87.480469-195 195s87.480469 195 195 195 195-87.480469 195-195-87.480469-195-195-195zm88.050781 222.214844-76.039062 101.765625c-2.828125 3.792969-7.28125 6.019531-12.011719 6.019531s-9.183594-2.226562-12.011719-6.019531c0 0-75.863281-101.5-76.039062-101.765625-11.089844-17.035156-16.949219-36.808594-16.949219-57.214844 0-57.890625 47.109375-105 105-105s105 47.109375 105 105c0 20.40625-5.859375 40.179688-16.949219 57.214844zm0 0"/><path d="m317 90.5c-41.351562 0-75 33.648438-75 75 0 14.414062 4.085938 28.402344 11.835938 40.457031l63.164062 84.492188 63.472656-84.902344c7.351563-11.351563 11.527344-25.472656 11.527344-40.046875 0-41.351562-33.648438-75-75-75zm0 120c-24.816406 0-45-20.1875-45-45s20.183594-45 45-45c24.8125 0 45 20.1875 45 45s-20.1875 45-45 45zm0 0"/><path d="m317 150.5c-8.277344 0-15 6.722656-15 15s6.722656 15 15 15 15-6.722656 15-15-6.722656-15-15-15zm0 0"/><path d="m13.152344 435.710938c-17.535156 17.535156-17.535156 46.070312 0 63.648437 17.535156 17.507813 46.109375 17.535156 63.632812-.015625l70.925782-70.925781-63.632813-63.632813zm0 0"/><path d="m129.40625 319.457031-24.117188 24.121094 63.632813 63.632813 24.117187-24.121094c-25.234374-16.730469-46.898437-38.394532-63.632812-63.632813zm0 0"/></svg>