<svg xmlns="http://www.w3.org/2000/svg" viewBox="0 0 407.27 390.22"><defs><style>.cls-1{fill:#510905;}</style></defs><title>Datový zdroj 5</title><g id="Vrstva_2" data-name="Vrstva 2"><g id="Vrstva_1-2" data-name="Vrstva 1"><path class="cls-1" d="M367.09,357.42a6.16,6.16,0,0,1,.18-3.06,6.31,6.31,0,0,1,1.48-2.71,6.45,6.45,0,0,1,2.69-1.56,6.25,6.25,0,0,1,3.08-.11c1.48.29,1.48.3,3,.6s1.49.22,3,.51,1.45.44,2.92.73,1.48.27,3,.56,1.5.19,3,.48,1.46.37,2.94.66,1.46.38,2.94.67,1.48.24,3,.53,1.46.38,2.94.68,1.49.24,3,.54a2.73,2.73,0,0,0,3.18-2.14,2.78,2.78,0,0,0-2.1-3.25c-1.43-.28-1.45-.17-2.88-.45s-1.44-.27-2.87-.56-1.4-.43-2.83-.72-1.47-.1-2.9-.39-1.42-.3-2.85-.59-1.4-.46-2.83-.74-1.44-.25-2.87-.54-1.47-.11-2.9-.4-1.43-.3-2.86-.59-1.41-.37-2.84-.65-1.42-.38-2.85-.67l-2.86-.57-2.87-.56c-1.44-.29-1.47-.12-2.91-.41a6.37,6.37,0,0,1-3.17-1.83c-1.11-1.12-1.18-1.05-2.29-2.16s-1.07-1.16-2.18-2.27-1.08-1.15-2.19-2.27-2.89-.73-2.35-2.21,1.49.31,2.91.59,1.44.19,2.86.47,1.39.38,2.81.67l2.84.56c1.42.29,1.42.26,2.84.54l2.84.55c1.42.28,1.41.34,2.83.62s1.42.26,2.84.54,1.39.42,2.81.7,1.46.11,2.87.4,1.42.32,2.84.61,1.41.31,2.84.6a2.78,2.78,0,0,0,3.25-2.1,2.73,2.73,0,0,0-2.21-3.14l-3-.61c-1.5-.3-1.48-.44-3-.74s-1.52-.21-3-.51-1.48-.35-3-.65l-3-.6c-1.5-.3-1.53-.11-3-.41s-1.46-.49-3-.79l-3-.58-3-.6c-1.5-.3-1.5-.26-3-.56l-3-.61-3-.59c-1.5-.3-1.51-.27-3-.57s-1.67.15-3-.56-1-1.09-2-2.11-1.09-1-2.12-2-1-1-2.07-2L337.76,317c-1-1-2.73-.88-2.06-2.16s1.49.34,2.91.63,1.43.21,2.85.49,1.41.36,2.82.65,1.44.18,2.86.46l2.84.58c1.42.28,1.39.44,2.81.72s1.45.1,2.87.38,1.41.33,2.83.62,1.4.38,2.82.67,1.43.23,2.85.51,1.42.3,2.84.58,1.44.21,2.86.5a2.73,2.73,0,0,0,3.25-2,2.75,2.75,0,0,0-2.21-3.16c-1.5-.3-1.49-.36-3-.66s-1.53-.17-3-.47-1.48-.4-3-.7-1.49-.36-3-.66-1.49-.32-3-.62l-3-.61-3-.59-3-.6c-1.5-.3-1.51-.26-3-.56s-1.5-.26-3-.56-1.52-.19-3-.49l-3-.59c-1.5-.3-1.49-.34-3-.64s-1.62,0-3-.71-1.09-1-2.15-2.07-1.14-1-2.2-2.05-1-1.1-2.09-2.17-1-1.15-2-2.21l-2.13-2.12c-1.06-1.06-1.16-.95-2.22-2s-1-1.09-2.1-2.15-1-1.15-2-2.21-1.14-1-2.2-2.05-1.13-1-2.19-2.06-1-1.13-2.05-2.19l-2.13-2.11c-1.07-1.06-1-1.15-2-2.22s-1.1-1-2.17-2.07-1.1-1-2.16-2.09-1-1.15-2-2.21l-2.13-2.11c-1.07-1.06-1.08-1-2.14-2.11l-2.13-2.12-2.12-2.13c-1.07-1.06-1.12-1-2.19-2.06s-1-1.08-2.11-2.14-1.13-1-2.19-2-1-1.12-2.06-2.18L275.81,255c-1.06-1.06-1.08-1-2.15-2.09s-1.08-1-2.14-2.1-1-1.16-2-2.23-1-1.08-2.09-2.14-1.2-.93-2.26-2-1-1.09-2.1-2.15-1-1.13-2.06-2.19-1-1.12-2.08-2.18-1.15-1-2.21-2-1.11-1-2.17-2.08-1-1.12-2.07-2.18-1.11-1-2.17-2.08-1-1.14-2-2.2-1.14-1-2.2-2-1.1-1-2.16-2.09-.95-1.17-2-2.24-1.05-1.07-2.12-2.13-1.14-1-2.2-2.05-1-1.1-2.09-2.16-1.11-1-2.17-2.07-1-1.14-2-2.2l-2.12-2.13c-1.06-1.06-1.17-.95-2.23-2s-1-1.11-2.07-2.17-1-1.09-2.09-2.15-1.09-1-2.15-2.08-1.09-1-2.15-2.09-1-1.11-2.07-2.17-1-1.08-2.1-2.14-1.09-1-2.15-2.09-1.08-1.05-2.14-2.11-1.08-1-2.14-2.1-1-1.09-2.09-2.15-1-1.08-2.1-2.14-1.06-1.06-2.12-2.12-1.11-1-2.17-2.09-1-1.14-2-2.2-1.08-1-2.15-2.1-1.16-1-2.22-2-1-1.1-2.08-2.16-1-1.08-2.11-2.14-1.1-1-2.16-2.09-1.08-1-2.14-2.09-1.05-1.08-2.11-2.14-1-1.12-2.06-2.18-1-1.1-2.09-2.16-1-1.08-2.11-2.14-1.13-1-2.19-2.05-1-1.11-2.08-2.17l-2.15-2.11c-1.06-1.06-1.12-1-2.18-2.07s-1-1.16-2-2.22-1.16-1-2.22-2-1-1.11-2.07-2.18-1-1.12-2.06-2.18-1.11-1-2.17-2.08-1.16-1-2.22-2-1-1.1-2.09-2.17-1-1.14-2.05-2.2-1.12-1-2.18-2.07-1-1.09-2.1-2.15-1.06-1.07-2.12-2.13-1.14-1-2.2-2-1-1.15-2.05-2.21-1.08-1-2.14-2.1-1-1.12-2.07-2.18-1.13-1-2.2-2.06-1.08-1-2.15-2.11l-2.12-2.12-2.13-2.13L125,104.27c-1.07-1.06-1-1.09-2.1-2.15s-1-1.08-2.11-2.15-1-1.09-2.1-2.16-1.09-1-2.15-2.09-1-1.08-2.11-2.15-1.18-.94-2.24-2-1-1.16-2-2.23-1.13-1-2.2-2.06-1-1.15-2-2.22-1.12-1-2.18-2.07-1.13-1-2.2-2.06-.93-1.2-2-2.26-1.11-1-2.17-2.08-1-1.1-2.09-2.17-1.12-1-2.19-2.06-1.15-1-2.21-2-1-1.15-2-2.21-1.13-1-2.2-2.07-1-1.15-2-2.22-1.11-1-2.18-2.07-1-1.14-2-2.21-1.21-.91-2.28-2-.92-1.21-2-2.27-1.17-1-2.23-2-1-1.11-2.09-2.17-1.1-1-2.17-2.1-1.07-1.05-2.14-2.12-1-1.08-2.11-2.15-1.11-1-2.17-2.08-.94-1.2-2-2.26l-2.15-2.11C58,37.2,58,37.22,56.93,36.15s-1.15-1-2.22-2S53.66,33,52.59,32s-1.12-1-2.19-2.08l-2.14-2.14a6.57,6.57,0,0,1-1.47-2.42,6.17,6.17,0,0,1-.39-2.8,6.73,6.73,0,0,1,1.09-2.59,6.59,6.59,0,0,1,1.85-2.11,6.1,6.1,0,0,1,2.66-1,6.45,6.45,0,0,1,2.76.45c1.55.51,1.6.37,3.15.88s1.51.66,3.06,1.18l3.09,1.05c1.56.51,1.58.44,3.13,1s1.58.43,3.14.95a2.57,2.57,0,0,0,3.32-1.64A2.6,2.6,0,0,0,72,17.35c-1.43-.48-1.42-.49-2.85-1s-1.44-.41-2.86-.88-1.4-.55-2.83-1-1.4-.52-2.83-1-1.43-.44-2.86-.91-1.44-.41-2.87-.88-1.37-.63-2.8-1.1-1.41-.5-2.84-1-1.43-.47-2.85-.94S45,8.23,43.54,7.76s-1.46-.37-2.89-.84-1.41-.51-2.84-1-1.4-.53-2.82-1-1.46-.37-2.89-.85-1.43-.44-2.86-.92-1.42-.48-2.85-1S25,1.53,23.59,1.06s-1.48-.32-2.9-.8A2.65,2.65,0,0,0,18,.84s-.06,0-.08.07-.06,0-.08,0a1.94,1.94,0,0,0-.26.31,2.29,2.29,0,0,0-.1.23,2.66,2.66,0,0,0,.13,2.88,28,28,0,0,1,1,2.79c.47,1.4.37,1.43.84,2.83s.46,1.41.92,2.81.42,1.42.89,2.83.57,1.36,1,2.76.56,1.38,1,2.78.4,1.43.87,2.83.51,1.39,1,2.79.44,1.41.91,2.82.46,1.4.93,2.81.39,1.43.86,2.83.49,1.4.95,2.81.55,1.37,1,2.78.4,1.42.87,2.83.5,1.39,1,2.8.53,1.38,1,2.79.36,1.44.83,2.85.5,1.4,1,2.8a2.5,2.5,0,0,0,.69,1,2.66,2.66,0,0,0,2.72.77,2.77,2.77,0,0,0,1.7-3.47c-.5-1.48-.61-1.45-1.11-2.93s-.33-1.54-.82-3S37,45.8,36.47,44.32s-.42-1.52-.91-3-.53-1.48-1-3a6.63,6.63,0,0,1-.34-2.8,6,6,0,0,1,1-2.63,6.48,6.48,0,0,1,2.06-1.87,6.22,6.22,0,0,1,2.62-.88,5.83,5.83,0,0,1,2.78.15A6.5,6.5,0,0,1,45,31.87c1.06,1.06,1.1,1,2.16,2.09s.92,1.19,2,2.25,1.2.92,2.27,2,1,1.15,2,2.21,1.09,1,2.15,2.09,1,1.11,2.06,2.17l2.13,2.11c1.06,1.06,1,1.09,2.1,2.15s1.16.95,2.22,2,1,1.17,2,2.23,1.08,1,2.14,2.1,1.18.94,2.24,2,.94,1.18,2,2.24,1.15,1,2.21,2,1,1.11,2.07,2.17,1,1.1,2.08,2.16S80,66.89,81,68s1,1.08,2.1,2.14,1.08,1,2.14,2.1,1,1.1,2.08,2.16l2.13,2.11,2.13,2.11c1.06,1.06,1.12,1,2.18,2.06s1,1.15,2,2.21,1.1,1,2.16,2.08,1.1,1,2.16,2.08,1.11,1,2.17,2.08,1,1.07,2.1,2.13,1,1.09,2.09,2.15,1.12,1,2.18,2.06,1,1.13,2.06,2.19,1,1.08,2.11,2.14,1.12,1,2.18,2,1,1.09,2.1,2.15l2.12,2.12c1.06,1.06,1.08,1,2.14,2.1s1,1.17,2,2.23,1.14,1,2.2,2,1,1.07,2.1,2.13,1,1.09,2.09,2.15,1.17,1,2.23,2,1,1.13,2,2.19,1,1.08,2.1,2.14,1.14,1,2.2,2.05,1,1.15,2,2.21,1,1.07,2.11,2.13,1.1,1,2.16,2.08,1.1,1,2.16,2.08,1,1.07,2.1,2.13,1,1.15,2,2.21,1.17.94,2.23,2,1.1,1,2.16,2.07,1,1.11,2.07,2.16,1.08,1,2.14,2.09,1,1.16,2,2.22,1.13,1,2.19,2,1,1.07,2.11,2.13,1,1.08,2.1,2.14,1,1.09,2.08,2.15l2.13,2.11c1.06,1.06,1.13,1,2.19,2.06l2.12,2.12c1.06,1.06,1.09,1,2.15,2.1s1,1.15,2,2.21,1,1.08,2.1,2.14,1.13,1,2.19,2.05,1.05,1.07,2.11,2.13,1.1,1,2.16,2.08,1,1.1,2.07,2.16,1,1.09,2.09,2.15l2.12,2.12c1.06,1.06,1.15,1,2.21,2s.92,1.2,2,2.26,1.13,1,2.19,2,1.15,1,2.21,2,1,1.17,2,2.23,1.13,1,2.19,2.05,1,1.09,2.09,2.15,1.08,1.05,2.14,2.11,1,1.14,2,2.2,1,1.08,2.11,2.14,1.12,1,2.18,2.06,1.16,1,2.22,2,1,1.11,2.07,2.17,1.11,1,2.17,2.09,1,1.15,2,2.21l2.12,2.12c1.06,1.06,1.13,1,2.19,2.06s.94,1.18,2,2.24,1.13,1,2.19,2.06,1.1,1,2.17,2.08,1,1.14,2,2.2,1.13,1,2.19,2.06,1,1.14,2.05,2.2,1.16,1,2.22,2,1.1,1,2.16,2.09,1,1.13,2.05,2.19,1.08,1,2.14,2.11,1.11,1,2.17,2.08,1,1.12,2.07,2.18,1.05,1.07,2.11,2.13,1,1.09,2.1,2.16l2.12,2.12c1.07,1.06,1,1.08,2.11,2.14s1.09,1,2.16,2.09,1,1.08,2.1,2.15,1.17,1,2.23,2,1,1.1,2.09,2.16,1,1.12,2.06,2.18,1,1.09,2.1,2.15,1.12,1,2.18,2.06,1.08,1,2.14,2.1,1,1.12,2.07,2.18,1.14,1,2.2,2.05,1,1.15,2,2.21,1.05,1.07,2.11,2.13,1.19.93,2.26,2,1,1.09,2.09,2.16,1,1.09,2.09,2.15,1.08,1,2.15,2.11,1,1.08,2.1,2.14,1,1.14,2.06,2.2,1.09,1,2.15,2.11,1.05,1.08,2.11,2.14,1.15,1,2.21,2,1.11,1,2.17,2.08l2.13,2.12c1.07,1.06,1,1.17,2,2.24s1.09,1,2.15,2.1,1.14,1,2.2,2.06,1,1.16,2,2.23,1.54.72,2.25,2.05.21,1.53.51,3,.31,1.49.61,3,.41,1.47.71,3,.27,1.5.57,3,.28,1.5.58,3,.14,1.53.44,3,.43,1.48.73,3,.21,1.52.51,3,.34,1.49.64,3,.29,1.5.59,3,.33,1.49.63,3,.19,1.52.49,3,.38,1.49.68,3,.29,1.5.59,3a3.06,3.06,0,0,0,3.2,2.13,2.68,2.68,0,0,0,2.07-3.19c-.29-1.41-.17-1.43-.45-2.85s-.35-1.41-.63-2.82-.29-1.42-.57-2.83-.33-1.41-.61-2.83-.15-1.44-.44-2.86-.45-1.38-.73-2.8-.11-1.45-.4-2.87-.39-1.39-.68-2.81-.25-1.42-.53-2.84-.36-1.4-.64-2.82-.33-1.41-.61-2.83-1.82-2.32-.47-2.83,1.12,1.06,2.23,2.17,1.06,1.16,2.17,2.27,1.07,1.15,2.19,2.27,1.26,1,2.37,2.07a6.47,6.47,0,0,1,1.67,3.29c.28,1.43.24,1.44.53,2.87s.31,1.42.6,2.85.31,1.43.59,2.86.17,1.45.45,2.88.44,1.4.72,2.83.31,1.43.59,2.86.11,1.47.4,2.9.39,1.41.67,2.84.35,1.42.63,2.85.13,1.46.41,2.89l.58,2.86c.29,1.43.41,1.41.69,2.84l.58,2.87c.29,1.43.32,1.42.61,2.86a2.68,2.68,0,0,0,.65,1.4,2.74,2.74,0,0,0,4.6-2.45c-.28-1.42-.24-1.43-.53-2.84s-.38-1.4-.67-2.82-.15-1.44-.44-2.86-.35-1.4-.63-2.82-.27-1.42-.56-2.84-.25-1.42-.53-2.84-.34-1.4-.63-2.82-.36-1.4-.65-2.82-.19-1.44-.48-2.85-.23-1.43-.52-2.85-.29-1.42-.58-2.84-2-2.31-.62-2.82,1.1,1.11,2.21,2.22,1.16,1.06,2.27,2.17,1.07,1.16,2.18,2.27,1.17,1.06,2.28,2.17a6.31,6.31,0,0,1,1.63,3.28c.29,1.43.41,1.4.69,2.83s.18,1.46.47,2.89.28,1.43.57,2.86.22,1.44.51,2.87.44,1.4.73,2.83.31,1.43.59,2.86.16,1.45.44,2.89.38,1.41.66,2.84.23,1.44.51,2.87.31,1.43.6,2.86.32,1.43.6,2.86.31,1.43.59,2.86.15,1.46.44,2.9.27,1.43.56,2.87a2.83,2.83,0,0,0,.85,1.34,2.75,2.75,0,0,0,2.43.82,2.83,2.83,0,0,0,2.18-3.25c-.29-1.48-.39-1.46-.69-2.93s-.27-1.48-.57-3-.24-1.49-.53-3l-.6-2.95c-.29-1.48-.26-1.49-.55-3s-.48-1.44-.78-2.92-.24-1.48-.53-3-.24-1.49-.54-3-.36-1.47-.66-2.95S367.38,358.9,367.09,357.42Z"/><path class="cls-1" d="M32.81,350a6.2,6.2,0,0,1,3,.26,6.1,6.1,0,0,1,2.58,1.56,6.17,6.17,0,0,1,1.7,2.54,6.37,6.37,0,0,1,.14,3.08c-.3,1.48-.4,1.46-.69,2.93s-.26,1.48-.56,3-.28,1.48-.57,3-.37,1.46-.67,2.93-.27,1.48-.57,3-.25,1.48-.54,3-.32,1.47-.61,2.95-.22,1.49-.51,3-.31,1.47-.61,2.95-.22,1.5-.51,3a2.65,2.65,0,0,0,2,3.2A2.84,2.84,0,0,0,39.69,388c.28-1.43.25-1.44.54-2.87s.33-1.42.61-2.85.13-1.46.42-2.89.29-1.43.57-2.86.43-1.41.71-2.84.24-1.44.53-2.87.33-1.42.61-2.85.31-1.43.59-2.86.28-1.43.56-2.86.09-1.48.38-2.91.43-1.4.71-2.83.2-1.45.49-2.89.36-1.41.65-2.85.26-1.44.55-2.87a6.28,6.28,0,0,1,1.69-3.24c1.11-1.12,1.2-1,2.31-2.14s1.09-1.14,2.2-2.25,1.1-1.14,2.21-2.25.72-2.76,2.2-2.22-.38,1.37-.66,2.78-.1,1.46-.38,2.88-.36,1.4-.65,2.82-.38,1.4-.66,2.81-.18,1.44-.47,2.86-.36,1.41-.64,2.83-.28,1.41-.56,2.83-.22,1.43-.51,2.85-.28,1.42-.57,2.84-.3,1.42-.58,2.83-.16,1.45-.44,2.87-.51,1.38-.79,2.8A2.77,2.77,0,0,0,53.53,373a2.62,2.62,0,0,0,3.09-2.11c.3-1.49.44-1.46.74-3s.27-1.5.57-3,.17-1.52.47-3,.45-1.47.75-3,.29-1.5.59-3,.21-1.52.51-3,.35-1.49.65-3,.29-1.5.59-3,.18-1.52.48-3,.47-1.46.77-3,.22-1.51.52-3,.23-1.52.53-3,.37-1.48.67-3-.12-1.65.59-3,1.08-1,2.11-2,1-1.08,2-2.1,1-1,2.06-2,1.06-1,2.08-2,.81-2.84,2.09-2.16-.27,1.53-.56,2.94-.32,1.42-.6,2.83-.29,1.42-.57,2.84-.21,1.43-.5,2.85-.42,1.39-.71,2.81-.25,1.43-.53,2.85-.18,1.44-.46,2.86-.35,1.4-.64,2.82-.36,1.41-.64,2.83-.23,1.43-.51,2.85-.37,1.4-.65,2.83-.24,1.43-.52,2.85a2.7,2.7,0,0,0,2.13,3.17,2.75,2.75,0,0,0,3.25-2.09c.3-1.5.19-1.52.49-3s.28-1.5.58-3,.44-1.47.74-3,.12-1.53.42-3,.32-1.49.62-3,.47-1.47.77-3,.26-1.5.56-3,.13-1.54.43-3,.32-1.49.62-3,.38-1.48.68-3,.39-1.48.69-3l.6-3c.3-1.5.29-1.51.59-3s-.28-1.71.44-3.06,1.17-1,2.23-2.06,1-1.13,2.06-2.19,1.1-1,2.16-2.08,1.11-1,2.17-2.08,1-1.17,2-2.23,1.11-1,2.17-2.06,1-1.14,2-2.2,1.14-1,2.2-2.05l2.12-2.13c1.06-1.06,1-1.08,2.1-2.14s1.05-1.07,2.11-2.14,1.1-1,2.16-2.08,1-1.08,2.1-2.14,1.16-1,2.22-2,.94-1.19,2-2.25,1.09-1,2.15-2.1,1.09-1,2.15-2.1,1.12-1,2.18-2.07,1-1.15,2-2.22,1.07-1.05,2.14-2.11,1.15-1,2.21-2,1-1.12,2.06-2.18,1.11-1,2.17-2.09l2.12-2.12c1.06-1.06.92-1.2,2-2.26s1.2-.92,2.27-2,1-1.09,2.1-2.15l2.12-2.12c1.06-1.06,1-1.09,2.1-2.15s1.07-1.05,2.13-2.12,1.05-1.07,2.11-2.14,1-1.08,2.11-2.14,1-1.1,2.09-2.16,1.12-1,2.18-2.07,1-1.13,2-2.2,1-1.08,2.1-2.14,1.07-1.05,2.13-2.12,1.07-1.05,2.14-2.11,1.13-1,2.19-2,1-1.11,2.08-2.17,1.11-1,2.17-2.07,1-1.14,2.06-2.2l2.13-2.12c1.06-1.06,1.17-1,2.23-2s.93-1.2,2-2.26,1.1-1,2.16-2.08,1.13-1,2.19-2,1-1.1,2.08-2.16,1.07-1.06,2.13-2.12,1-1.11,2.07-2.17,1.17-.95,2.23-2,1-1.14,2-2.2,1.1-1,2.16-2.08,1-1.15,2-2.21,1.13-1,2.19-2,1.1-1,2.16-2.08,1.08-1,2.14-2.1l2.12-2.12,2.12-2.12,2.12-2.13c1.06-1.06,1-1.09,2.09-2.16s1-1.09,2.1-2.15,1-1.14,2-2.2,1.05-1.07,2.11-2.14,1.09-1,2.15-2.09,1.15-1,2.21-2,1-1.1,2.08-2.16,1-1.14,2-2.2,1.1-1,2.16-2.08,1.15-1,2.21-2,1.06-1.07,2.12-2.13,1-1.17,2-2.23,1.08-1,2.14-2.1,1.16-1,2.22-2,1-1.14,2.05-2.21,1-1.13,2.06-2.19,1.13-1,2.19-2.06,1.06-1.06,2.12-2.13,1.15-1,2.22-2,1-1.11,2.07-2.17,1-1.1,2.09-2.16,1.14-1,2.21-2,1.05-1.07,2.11-2.14,1-1.07,2.11-2.14l2.13-2.13,2.12-2.12c1.07-1.07,1-1.12,2.07-2.19s1.08-1,2.14-2.11,1-1.14,2-2.2,1.12-1,2.19-2.06,1-1.07,2.11-2.13,1-1.1,2.1-2.16,1-1.09,2.1-2.15,1.17-1,2.23-2,1.09-1,2.15-2.1.93-1.2,2-2.26,1.09-1,2.15-2.1,1.13-1,2.2-2.06,1.11-1,2.17-2.08,1-1.15,2-2.22,1-1.1,2.09-2.16,1.11-1,2.18-2.08,1-1.11,2.08-2.18,1.14-1,2.2-2,1-1.14,2.05-2.21,1-1.09,2.1-2.16,1.18-1,2.24-2,1.07-1,2.14-2.12,1-1.14,2-2.2,1.11-1,2.17-2.09,1-1.11,2.08-2.18,1.13-1,2.19-2.05,1.07-1,2.13-2.12,1-1.17,2-2.24,1.11-1,2.17-2.07,1.1-1,2.16-2.1,1-1.1,2.1-2.16,1-1.09,2.1-2.16,1.11-1,2.17-2.08,1.09-1,2.15-2.11,1-1.09,2.1-2.15,1.05-1.08,2.12-2.15,1-1.09,2.1-2.15,1.1-1,2.17-2.1,1.08-1,2.14-2.11,1.07-1.06,2.13-2.13,1-1.1,2.09-2.17,1.15-1,2.21-2.05,1.05-1.09,2.11-2.16,1-1.16,2-2.23,1.1-1,2.17-2.1,1.09-1.05,2.16-2.11a6.64,6.64,0,0,1,2.33-1.59,6.24,6.24,0,0,1,2.82-.34,6.76,6.76,0,0,1,2.67,1,6.55,6.55,0,0,1,2,2,5.9,5.9,0,0,1,.91,2.63,6.26,6.26,0,0,1-.34,2.75c-.51,1.55-.42,1.58-.93,3.13s-.58,1.53-1.1,3.08-.49,1.56-1,3.11-.44,1.58-.95,3.13-.65,1.51-1.17,3.06a2.7,2.7,0,0,0,1.79,3.37,2.65,2.65,0,0,0,3.39-1.64c.48-1.42.57-1.39,1-2.81s.41-1.45.88-2.87.35-1.47.82-2.89.53-1.41,1-2.83.58-1.39,1.06-2.81.4-1.45.87-2.88.51-1.41,1-2.83.49-1.42,1-2.85.38-1.46.85-2.88.59-1.39,1.06-2.82.46-1.43.93-2.85.55-1.41,1-2.83.39-1.45.87-2.88.44-1.43.91-2.86.48-1.43.95-2.85.48-1.43.95-2.85l1-2.86c.48-1.43.52-1.41,1-2.84a2.75,2.75,0,0,0-.64-2.79s0-.07-.05-.1-.05,0-.07,0A2.67,2.67,0,0,0,389,.45c-.07,0-.21,0-.28,0A2.57,2.57,0,0,0,385.85.4a27,27,0,0,1-2.77,1c-1.4.47-1.44.34-2.84.81s-1.38.54-2.78,1-1.38.56-2.78,1-1.46.29-2.86.76-1.39.53-2.79,1-1.42.42-2.82.89-1.38.54-2.79,1-1.36.59-2.77,1.05-1.44.35-2.84.82-1.38.55-2.78,1-1.45.35-2.86.81-1.38.54-2.78,1-1.44.37-2.84.84-1.34.67-2.75,1.14-1.47.27-2.87.74-1.36.6-2.77,1.07-1.43.42-2.83.89a2.58,2.58,0,0,0-1,.68A2.67,2.67,0,0,0,337,22.38c1.49-.49,1.47-.55,3-1.05s1.54-.31,3-.81,1.47-.52,3-1l3-1c1.48-.49,1.45-.6,2.93-1.1a6.56,6.56,0,0,1,2.8-.3,6.15,6.15,0,0,1,2.69.91,6.76,6.76,0,0,1,2,2,6.51,6.51,0,0,1,.87,2.69,6,6,0,0,1-.25,2.81,6.68,6.68,0,0,1-1.66,2.27c-1.06,1.06-1,1.16-2,2.22l-2.13,2.12c-1.06,1.06-1.15,1-2.21,2s-.95,1.17-2,2.23-1.17,1-2.23,2l-2.13,2.11c-1.06,1.06-1,1.11-2.06,2.17s-1,1.12-2.06,2.18-1.08,1-2.14,2.1l-2.12,2.12L335,51.23c-1.06,1.06-1,1.11-2.06,2.17s-1.12,1-2.18,2.07-1.09,1-2.15,2.09-1,1.08-2.1,2.14-1,1.11-2.06,2.18-1.18.95-2.24,2-1.07,1-2.13,2.1L318,68.12c-1.06,1.06-1,1.08-2.1,2.14s-1,1.14-2,2.2-1.09,1-2.14,2.1-1.11,1-2.17,2.07-1,1.14-2,2.2-1,1.08-2.1,2.14l-2.12,2.12c-1.06,1.06-1.2.92-2.26,2s-.94,1.18-2,2.24-1.12,1-2.18,2.07-1.07,1-2.13,2.1-1.08,1-2.15,2.1-1.09,1-2.15,2.1-1,1.09-2.09,2.15-1,1.11-2.07,2.17-1,1.1-2.08,2.16-1.13,1-2.19,2.06l-2.13,2.11c-1.06,1.06-1.09,1-2.15,2.08s-1,1.14-2,2.2-1,1.13-2,2.19-1.12,1-2.18,2.07-1,1.1-2.08,2.16-1.08,1-2.14,2.1l-2.12,2.12c-1.06,1.06-1.12,1-2.18,2.07s-1.05,1.07-2.11,2.13-1,1.12-2.06,2.18-1.11,1-2.17,2.06-1,1.09-2.1,2.15-1,1.1-2.06,2.16-1.14,1-2.2,2-1,1.08-2.1,2.14-1,1.1-2.06,2.16-1.17.95-2.22,2-1,1.09-2.09,2.15-1,1.14-2,2.2-1.18.94-2.24,2-.95,1.17-2,2.23-1.12,1-2.18,2-1,1.09-2.09,2.15-1,1.08-2.1,2.15-1.09,1-2.15,2.09-1.12,1-2.18,2.07-1.09,1-2.15,2.09-1,1.17-2,2.23l-2.12,2.12c-1.06,1.06-1,1.09-2.09,2.15s-1.19.92-2.25,2-.92,1.2-2,2.26-1.15,1-2.2,2-1,1.1-2.09,2.16-1.12,1-2.18,2.06-1,1.07-2.11,2.13-1.08,1-2.14,2.1-1,1.16-2,2.22-1.17,1-2.23,2-1,1.08-2.1,2.14-.94,1.18-2,2.24-1.18.94-2.24,2-1,1.16-2,2.22-1.11,1-2.17,2.06-1.1,1-2.16,2.08-1,1.1-2.09,2.16-1.08,1-2.14,2.11-1,1.08-2.1,2.14-1.11,1-2.17,2.08-1.05,1.08-2.11,2.14l-2.11,2.12c-1.06,1.07-1,1.12-2.07,2.19s-1.15,1-2.21,2-1,1.1-2.08,2.16-1,1.1-2.09,2.16-1,1.11-2.07,2.18-1.08,1-2.14,2.11-1.09,1-2.15,2.09-1,1.12-2.07,2.18-1.12,1-2.19,2-1.07,1.05-2.13,2.12-1,1.12-2.06,2.19-1.09,1-2.15,2.09l-2.12,2.13c-1.07,1.06-1.05,1.08-2.11,2.14s-1.17,1-2.23,2-1,1.14-2,2.21-1.08,1-2.14,2.1-1.09,1-2.16,2.1-1,1.16-2,2.23-1.13,1-2.19,2.06-1.08,1-2.14,2.1-1,1.13-2,2.2-1.15,1-2.21,2-1.08,1-2.14,2.11-1,1.09-2.08,2.16-1,1.1-2.08,2.17-1.08,1-2.14,2.1-1.15,1-2.21,2-1,1.17-2,2.23-1,1.11-2.09,2.18-1.1,1-2.17,2.07-1,1.09-2.1,2.16-1.16,1-2.22,2-1,1.14-2,2.21-1.08,1.05-2.14,2.11-1.09,1-2.15,2.11-1.09,1-2.16,2.09-1,1.08-2.11,2.14-1,1.13-2.06,2.19l-2.13,2.13c-1.07,1.06-1,1.09-2.11,2.15s-1.15,1-2.22,2-1.08,1.05-2.15,2.12-.74,1.5-2.07,2.21-1.51.28-3,.58-1.49.35-3,.65-1.51.24-3,.54-1.5.25-3,.55l-3,.6c-1.5.3-1.47.42-3,.72s-1.54.11-3,.41-1.48.39-3,.69-1.47.42-3,.72-1.52.15-3,.45-1.48.4-3,.7-1.51.25-3,.55l-3,.62c-1.5.3-1.52.18-3,.48a2.89,2.89,0,0,0-1.43.74,2.83,2.83,0,0,0-.69,2.52,2.61,2.61,0,0,0,3.17,2c1.42-.28,1.43-.21,2.85-.49s1.4-.34,2.82-.63,1.44-.16,2.86-.44l2.83-.56c1.42-.28,1.4-.37,2.82-.65s1.45-.13,2.87-.41,1.39-.37,2.81-.65,1.41-.35,2.82-.63,1.44-.17,2.86-.46,1.4-.37,2.82-.65,1.44-.18,2.86-.46,2.35-2,2.86-.68-1.08,1.19-2.19,2.31-1.19,1-2.3,2.14-1.09,1.14-2.2,2.25-1.07,1.15-2.18,2.27a6.44,6.44,0,0,1-3.28,1.67l-2.86.56c-1.43.28-1.44.24-2.87.52l-2.86.58c-1.43.28-1.43.25-2.86.54s-1.42.33-2.85.62-1.44.26-2.87.54-1.4.43-2.83.72-1.44.23-2.87.52-1.45.2-2.88.48-1.44.25-2.87.54-1.41.38-2.84.66-1.43.31-2.86.6-1.45.21-2.89.5-1.41.39-2.84.67a2.79,2.79,0,0,0-1.44.63,2.89,2.89,0,0,0-.77,2.51,2.69,2.69,0,0,0,3.24,2c1.41-.28,1.42-.23,2.84-.52s1.43-.23,2.84-.51,1.41-.31,2.83-.6l2.84-.54c1.42-.28,1.44-.19,2.86-.47s1.41-.31,2.83-.6,1.42-.26,2.84-.54,1.39-.4,2.81-.68,1.4-.35,2.82-.64l2.84-.57c1.42-.28,1.45-.13,2.87-.42s2.29-2,2.8-.62-1,1.15-2.14,2.26-1.21,1-2.32,2.13-1,1.21-2.12,2.33-1.19,1-2.3,2.15a6.31,6.31,0,0,1-3.2,1.74c-1.43.28-1.41.39-2.84.67s-1.44.26-2.87.55l-2.86.56c-1.43.28-1.46.12-2.89.41s-1.41.42-2.84.7-1.45.2-2.88.49-1.42.32-2.85.61-1.44.27-2.87.56-1.42.32-2.85.61-1.45.18-2.89.46-1.41.36-2.84.65L8,349.46c-1.43.28-1.41.39-2.85.68s-1.45.18-2.89.47a2.66,2.66,0,0,0-1.33.79A2.72,2.72,0,0,0,0,353.82a2.79,2.79,0,0,0,3.25,2.11c1.47-.3,1.47-.31,3-.6s1.46-.33,2.94-.63,1.5-.17,3-.46,1.44-.46,2.92-.76,1.51-.12,3-.42,1.45-.41,2.93-.7,1.48-.27,3-.56,1.46-.37,2.94-.67,1.47-.33,2.95-.63S31.33,350.28,32.81,350Z"/></g></g></svg>