<svg height="512pt" fill="#9D0E00" viewBox="0 0 512 512" width="512pt" xmlns="http://www.w3.org/2000/svg"><path d="m150 361v-91c0-8.285156-6.714844-15-15-15h-135v121h135c8.285156 0 15-6.714844 15-15zm-45-30c-8.285156 0-15-6.714844-15-15s6.714844-15 15-15 15 6.714844 15 15-6.714844 15-15 15zm0 0"/><path d="m512 210c0-33.136719-26.863281-60-60-60h-302c-33.136719 0-60 26.863281-60 60v15h45c24.8125 0 45 20.1875 45 45v91c0 24.8125-20.1875 45-45 45h-45v46c0 33.136719 26.863281 60 60 60h302c33.136719 0 60-26.863281 60-60zm-302 257c-8.285156 0-15-6.714844-15-15s6.714844-15 15-15 15 6.714844 15 15-6.714844 15-15 15zm0-242c-8.285156 0-15-6.714844-15-15s6.714844-15 15-15 15 6.714844 15 15-6.714844 15-15 15zm61 242c-8.285156 0-15-6.714844-15-15s6.714844-15 15-15 15 6.714844 15 15-6.714844 15-15 15zm0-242c-8.285156 0-15-6.714844-15-15s6.714844-15 15-15 15 6.714844 15 15-6.714844 15-15 15zm60 242c-8.285156 0-15-6.714844-15-15s6.714844-15 15-15 15 6.714844 15 15-6.714844 15-15 15zm0-242c-8.285156 0-15-6.714844-15-15s6.714844-15 15-15 15 6.714844 15 15-6.714844 15-15 15zm61 242c-8.285156 0-15-6.714844-15-15s6.714844-15 15-15 15 6.714844 15 15-6.714844 15-15 15zm0-242c-8.285156 0-15-6.714844-15-15s6.714844-15 15-15 15 6.714844 15 15-6.714844 15-15 15zm60 242c-8.285156 0-15-6.714844-15-15s6.714844-15 15-15 15 6.714844 15 15-6.714844 15-15 15zm0-61c-8.285156 0-15-6.714844-15-15s6.714844-15 15-15 15 6.714844 15 15-6.714844 15-15 15zm0-60c-8.285156 0-15-6.714844-15-15s6.714844-15 15-15 15 6.714844 15 15-6.714844 15-15 15zm0-61c-8.285156 0-15-6.714844-15-15s6.714844-15 15-15 15 6.714844 15 15-6.714844 15-15 15zm0-60c-8.285156 0-15-6.714844-15-15s6.714844-15 15-15 15 6.714844 15 15-6.714844 15-15 15zm0 0"/><path d="m135 0c-8.289062 0-15 6.710938-15 15v42.238281c4.714844 1.679688 9.714844 2.761719 15 2.761719 24.8125 0 45-20.1875 45-45 0-5.285156-1.082031-10.285156-2.761719-15zm0 0"/><path d="m361 15c0 24.8125 21.1875 45 46 45 5.285156 0 10.285156-1.082031 15-2.761719v-42.238281c0-8.289062-6.710938-15-15-15h-43.238281c-1.679688 4.714844-2.761719 9.714844-2.761719 15zm0 0"/><path d="m135 90c-5.136719 0-10.152344-.527344-15-1.519531v31.519531h107.761719c-1.679688-4.714844-2.761719-9.714844-2.761719-15 0-24.8125 21.1875-45 46-45s45 20.1875 45 45c0 5.285156-1.082031 10.285156-2.761719 15h108.761719v-31.519531c-4.847656.992187-9.863281 1.519531-15 1.519531-41.351562 0-76-33.648438-76-75 0-5.136719.527344-10.152344 1.519531-15h-124.039062c.992187 4.847656 1.519531 9.863281 1.519531 15 0 41.351562-33.648438 75-75 75zm0 0"/><path d="m256 105c0 8.277344 6.722656 15 15 15s15-6.722656 15-15-6.722656-15-15-15-15 6.722656-15 15zm0 0"/><path d="m60 512h23.40625c-14.390625-15.960938-23.40625-36.867188-23.40625-60v-46h-60v46c0 33.136719 26.863281 60 60 60zm0 0"/><path d="m60 210c0-23.132812 9.015625-44.039062 23.40625-60h-23.40625c-33.136719 0-60 26.863281-60 60v15h60zm0 0"/></svg>